<svg id="Capa_1" enable-background="new 0 0 512 512" height="20" viewBox="0 0 512 512" width="20" xmlns="http://www.w3.org/2000/svg"><g><path d="m166.023 112.557 30.13-8.81 7.435 30.499 5.585 22.907 27.614-48.009c4.262-7.409 11.739-11.115 19.217-11.115 7.468 0 14.936 3.696 19.202 11.091l65.848 114.15-42.538 24.568 121.008 35.363 29.843-122.486-42.687 24.654-85.049-147.435c-13.689-23.744-38.224-37.925-65.631-37.934h-.025c-27.396 0-51.931 14.166-65.63 37.892l-46.712 81.212z"/><path d="m501.34 349.12-47.11-81.62-12.991 53.303-52.628-15.38 27.898 48.337c8.54 14.78-2.13 33.25-19.19 33.25h-131.9v-49.21l-91.14 87.1 91.14 87.1v-49.21h170.29c27.4 0 51.93-14.16 65.63-37.89 13.701-23.73 13.701-52.06.001-75.78z"/><path d="m77.319 462.791h93.183l-16.952-16.201-22.69-21.69 22.69-21.69 16.954-16.203h-55.81c-17.067 0-27.732-18.477-19.196-33.255l66.156-114.542 42.649 24.624-29.861-122.482-121.003 35.38 42.583 24.585-85.363 147.798c-13.743 23.804-13.699 52.241.134 76.014 13.704 23.554 39.276 37.662 66.526 37.662z"/></g></svg>